<svg width="325" height="97" viewBox="0 0 325 97" fill="none" xmlns="http://www.w3.org/2000/svg">
<path d="M48.5611 0C21.7568 0 0 21.7294 0 48.5C0 75.3286 21.7568 97 48.5611 97C75.4235 97 97.1222 75.2706 97.1222 48.5C97.1802 21.7294 75.4235 0 48.5611 0ZM70.84 69.9976C69.9698 71.4462 68.1132 71.8519 66.6627 70.9827C55.2332 64.0293 40.9027 62.4648 23.9615 66.2891C22.3369 66.6368 20.7124 65.6517 20.3643 64.0293C20.0162 62.4068 21.0025 60.7844 22.627 60.4367C41.1348 56.2067 57.0317 58.003 69.7957 65.8256C71.3042 66.6947 71.7683 68.549 70.84 69.9976ZM76.8159 56.7861C75.7135 58.5824 73.3928 59.1039 71.5943 58.0609C58.5402 50.0066 38.64 47.6888 23.2072 52.3823C21.1766 52.9618 19.0879 51.8608 18.5078 49.8907C17.9276 47.8626 19.0299 45.7766 21.0605 45.1971C38.698 39.8662 60.6288 42.4158 75.6555 51.629C77.338 52.672 77.9182 54.9898 76.8159 56.7861ZM77.3381 42.9952C61.6732 33.724 35.8551 32.8548 20.8865 37.3746C18.5078 38.1278 15.955 36.7372 15.2007 34.3614C14.4465 31.9857 15.8389 29.4361 18.2177 28.6828C35.391 23.4677 63.9359 24.5108 81.9215 35.1726C84.0681 36.4474 84.7644 39.2288 83.488 41.3728C82.2696 43.5747 79.4847 44.27 77.3381 42.9952Z" fill="#1ED760"/>
<path d="M132.452 44.7924C124.039 42.8223 122.589 41.3737 122.589 38.4185C122.589 35.6371 125.199 33.7829 129.087 33.7829C132.858 33.7829 136.629 35.2315 140.574 38.1287C140.69 38.2446 140.864 38.2446 140.98 38.2446C141.154 38.2446 141.27 38.1287 141.328 38.0129L145.448 32.2184C145.622 31.9866 145.564 31.6389 145.332 31.4651C140.632 27.6986 135.353 25.9023 129.203 25.9023C120.152 25.9023 113.828 31.3492 113.828 39.1138C113.828 47.4579 119.282 50.4131 128.738 52.673C136.745 54.5272 138.137 56.0917 138.137 58.8151C138.137 61.8862 135.411 63.7984 131.001 63.7984C126.128 63.7984 122.124 62.1759 117.657 58.2936C117.541 58.1777 117.367 58.1777 117.251 58.1777C117.077 58.1777 116.961 58.2357 116.903 58.3516L112.319 63.7984C112.145 64.0302 112.145 64.3778 112.377 64.5517C117.599 69.1873 123.981 71.621 130.885 71.621C140.632 71.621 146.956 66.29 146.956 58.0618C146.84 51.1084 142.721 47.2841 132.452 44.7924Z" fill="#1ED760"/>
<path d="M168.945 36.5059C164.71 36.5059 161.229 38.1863 158.386 41.605V37.7806C158.386 37.4909 158.154 37.2591 157.864 37.2591H150.38C150.09 37.2591 149.857 37.4909 149.857 37.7806V80.4282C149.857 80.7179 150.09 80.9497 150.38 80.9497H157.864C158.154 80.9497 158.386 80.7179 158.386 80.4282V66.985C161.229 70.1719 164.71 71.7364 168.945 71.7364C176.778 71.7364 184.784 65.7102 184.784 54.1212C184.784 42.5901 176.778 36.5059 168.945 36.5059ZM176.024 54.1212C176.024 60.0315 172.368 64.0877 167.205 64.0877C162.041 64.0877 158.212 59.7998 158.212 54.1212C158.212 48.4425 162.099 44.1546 167.205 44.1546C172.31 44.1546 176.024 48.3266 176.024 54.1212Z" fill="#1ED760"/>
<path d="M205.147 36.5059C195.052 36.5059 187.104 44.3284 187.104 54.237C187.104 64.0877 194.994 71.7944 205.031 71.7944C215.184 71.7944 223.133 64.0298 223.133 54.1212C223.133 44.2705 215.242 36.5059 205.147 36.5059ZM205.147 64.2036C199.751 64.2036 195.69 59.8577 195.69 54.1791C195.69 48.4425 199.635 44.2705 205.031 44.2705C210.427 44.2705 214.546 48.6164 214.546 54.3529C214.546 60.0316 210.601 64.2036 205.147 64.2036Z" fill="#1ED760"/>
<path d="M244.773 37.1989H236.535V28.7969C236.535 28.5072 236.303 28.2754 236.012 28.2754H228.528C228.238 28.2754 228.006 28.5072 228.006 28.7969V37.2569H224.409C224.119 37.2569 223.887 37.4887 223.887 37.7784V44.2103C223.887 44.5 224.119 44.7318 224.409 44.7318H228.006V61.42C228.006 68.1416 231.371 71.5603 237.985 71.5603C240.654 71.5603 242.917 70.9809 245.005 69.822C245.179 69.7061 245.295 69.5323 245.295 69.3584V63.2163C245.295 63.0424 245.179 62.8686 245.063 62.7527C244.889 62.6368 244.715 62.6368 244.541 62.7527C243.091 63.506 241.698 63.7957 240.132 63.7957C237.695 63.7957 236.651 62.6947 236.651 60.2611V44.7897H244.889C245.179 44.7897 245.411 44.5579 245.411 44.2682V37.7784C245.295 37.4887 245.063 37.1989 244.773 37.1989Z" fill="#1ED760"/>
<path d="M273.552 37.2596V36.2166C273.552 33.1455 274.712 31.8128 277.323 31.8128C278.889 31.8128 280.166 32.1025 281.558 32.5661C281.732 32.624 281.906 32.5661 282.08 32.5081C282.196 32.3923 282.312 32.2184 282.312 32.0446V25.7286C282.312 25.4968 282.138 25.265 281.906 25.2071C280.398 24.7435 278.541 24.3379 275.64 24.3379C268.678 24.3379 265.023 28.2202 265.023 35.6372V37.2017H261.426C261.136 37.2017 260.846 37.4335 260.846 37.7232V44.213C260.846 44.5028 261.078 44.7345 261.426 44.7345H265.023V70.4621C265.023 70.7519 265.255 70.9837 265.545 70.9837H273.029C273.32 70.9837 273.552 70.7519 273.552 70.4621V44.7925H280.572L291.305 70.5201C290.087 73.2435 288.868 73.765 287.244 73.765C285.91 73.765 284.517 73.3594 283.125 72.6061C283.009 72.5482 282.835 72.5482 282.661 72.5482C282.544 72.6061 282.37 72.722 282.312 72.8379L279.76 78.4006C279.644 78.6903 279.76 78.9801 279.992 79.096C282.66 80.5446 285.039 81.124 287.998 81.124C293.568 81.124 296.585 78.5165 299.312 71.621L312.366 38.0129C312.424 37.8391 312.424 37.6652 312.308 37.4914C312.192 37.3176 312.018 37.2596 311.844 37.2596H304.011C303.779 37.2596 303.547 37.4335 303.489 37.6073L295.482 60.4377L286.896 37.6073C286.838 37.3755 286.606 37.2596 286.374 37.2596H273.552Z" fill="#1ED760"/>
<path d="M256.901 37.1982H249.417C249.127 37.1982 248.895 37.43 248.895 37.7197V70.4587C248.895 70.7484 249.127 70.9802 249.417 70.9802H256.901C257.191 70.9802 257.423 70.7484 257.423 70.4587V37.7777C257.423 37.488 257.191 37.1982 256.901 37.1982Z" fill="#1ED760"/>
<path d="M253.128 22.3086C250.169 22.3086 247.732 24.7423 247.732 27.6975C247.732 30.6527 250.169 33.0864 253.128 33.0864C256.087 33.0864 258.524 30.6527 258.524 27.6975C258.524 24.7423 256.145 22.3086 253.128 22.3086Z" fill="#1ED760"/>
<path d="M318.979 47.7475C316.02 47.7475 313.699 45.3718 313.699 42.4745C313.699 39.5772 316.02 37.1436 319.037 37.1436C321.996 37.1436 324.317 39.5193 324.317 42.4166C324.259 45.3138 321.938 47.7475 318.979 47.7475ZM318.979 37.6651C316.252 37.6651 314.221 39.809 314.221 42.4745C314.221 45.082 316.252 47.226 318.979 47.226C321.706 47.226 323.736 45.082 323.736 42.4166C323.736 39.809 321.706 37.6651 318.979 37.6651ZM320.139 42.996L321.648 45.082H320.371L319.037 43.1698H317.877V45.082H316.832V39.5193H319.327C320.603 39.5193 321.474 40.1567 321.474 41.3156C321.474 42.1848 320.893 42.7642 320.139 42.996ZM319.269 40.5044H317.877V42.2427H319.269C319.965 42.2427 320.371 41.895 320.371 41.3735C320.371 40.7941 319.965 40.5044 319.269 40.5044Z" fill="#1ED760"/>
</svg>
